<svg xmlns="http://www.w3.org/2000/svg" viewBox="0 0 32 32"  xmlns:v="bla"><style><![CDATA[path{shape-rendering: crispedges}.B{fill:#c1c1c1}.C{fill:#ff0}.D{fill:#fff}.E{fill:#818181}.F{fill:#00f}.G{fill:#818100}]]></style><g class="E"><path d="M16 1h1v1h-1z"/><path d="M15 2h1v1h-1z"/></g><path d="M16 2h1v1h-1z" class="B"/><path d="M17 2h1v1h-1z"/><path d="M14 3h1v1h-1z" class="E"/><g class="D"><path d="M15 3h1v1h-1z"/><path d="M16 3h1v1h-1z"/></g><path d="M17 3h1v1h-1z" class="B"/><path d="M18 3h1v1h-1z"/><g class="E"><path d="M7 4h1v1H7z"/><path d="M8 4h1v1H8z"/><path d="M9 4h1v1H9z"/><path d="M10 4h1v1h-1z"/><path d="M11 4h1v1h-1z"/><path d="M12 4h1v1h-1z"/><path d="M13 4h1v1h-1z"/></g><g class="D"><path d="M14 4h1v1h-1z"/><path d="M15 4h1v1h-1z"/><path d="M16 4h1v1h-1z"/><path d="M17 4h1v1h-1z"/></g><path d="M18 4h1v1h-1z" class="B"/><path d="M19 4h1v1h-1z"/><path d="M6 5h1v1H6z" class="E"/><g class="D"><path d="M7 5h1v1H7z"/><path d="M8 5h1v1H8z"/><path d="M9 5h1v1H9z"/><path d="M10 5h1v1h-1z"/><path d="M11 5h1v1h-1z"/></g><path d="M12 5h1v1h-1z" class="E"/><g class="D"><path d="M13 5h1v1h-1z"/><path d="M14 5h1v1h-1z"/><path d="M15 5h1v1h-1z"/><path d="M16 5h1v1h-1z"/><path d="M17 5h1v1h-1z"/><path d="M18 5h1v1h-1z"/></g><path d="M19 5h1v1h-1z" class="B"/><path d="M20 5h1v1h-1z"/><path d="M5 6h1v1H5z" class="E"/><path d="M6 6h1v1H6z" class="D"/><path d="M7 6h1v1H7z" class="B"/><path d="M8 6h1v1H8z" class="C"/><path d="M9 6h1v1H9z" class="B"/><path d="M10 6h1v1h-1z" class="C"/><path d="M11 6h1v1h-1z" class="E"/><g class="D"><path d="M12 6h1v1h-1z"/><path d="M13 6h1v1h-1z"/><path d="M14 6h1v1h-1z"/><path d="M15 6h1v1h-1z"/><path d="M16 6h1v1h-1z"/><path d="M17 6h1v1h-1z"/><path d="M18 6h1v1h-1z"/><path d="M19 6h1v1h-1z"/></g><path d="M20 6h1v1h-1z" class="B"/><path d="M21 6h1v1h-1z"/><path d="M4 7h1v1H4z" class="E"/><path d="M5 7h1v1H5z" class="D"/><path d="M6 7h1v1H6z" class="B"/><path d="M7 7h1v1H7z" class="C"/><path d="M8 7h1v1H8z" class="B"/><path d="M9 7h1v1H9z" class="C"/><path d="M10 7h1v1h-1z" class="E"/><g class="D"><path d="M11 7h1v1h-1z"/><path d="M12 7h1v1h-1z"/><path d="M13 7h1v1h-1z"/><path d="M14 7h1v1h-1z"/></g><path d="M15 7h1v1h-1z" class="F"/><g class="D"><path d="M16 7h1v1h-1z"/><path d="M17 7h1v1h-1z"/><path d="M18 7h1v1h-1z"/><path d="M19 7h1v1h-1z"/><path d="M20 7h1v1h-1z"/></g><path d="M21 7h1v1h-1z" class="B"/><path d="M22 7h1v1h-1z"/><path d="M3 8h1v1H3z" class="E"/><path d="M4 8h1v1H4z" class="D"/><path d="M5 8h1v1H5z" class="B"/><path d="M6 8h1v1H6z" class="C"/><path d="M7 8h1v1H7z" class="B"/><path d="M8 8h1v1H8z" class="C"/><path d="M9 8h1v1H9z" class="E"/><g class="D"><path d="M10 8h1v1h-1z"/><path d="M11 8h1v1h-1z"/><path d="M12 8h1v1h-1z"/><path d="M13 8h1v1h-1z"/></g><path d="M14 8h1v1h-1z" class="F"/><g class="D"><path d="M15 8h1v1h-1z"/><path d="M16 8h1v1h-1z"/></g><path d="M17 8h1v1h-1z" class="F"/><g class="D"><path d="M18 8h1v1h-1z"/><path d="M19 8h1v1h-1z"/><path d="M20 8h1v1h-1z"/><path d="M21 8h1v1h-1z"/></g><path d="M22 8h1v1h-1z" class="B"/><path d="M23 8h1v1h-1z"/><g class="E"><path d="M24 8h1v1h-1z"/><path d="M25 8h1v1h-1z"/><path d="M26 8h1v1h-1z"/><path d="M27 8h1v1h-1zM3 9h1v1H3z"/></g><path d="M4 9h1v1H4z" class="D"/><path d="M5 9h1v1H5z" class="C"/><path d="M6 9h1v1H6z" class="B"/><path d="M7 9h1v1H7z" class="C"/><path d="M8 9h1v1H8z" class="E"/><g class="D"><path d="M9 9h1v1H9z"/><path d="M10 9h1v1h-1z"/><path d="M11 9h1v1h-1z"/><path d="M12 9h1v1h-1z"/></g><path d="M13 9h1v1h-1z" class="F"/><g class="D"><path d="M14 9h1v1h-1z"/><path d="M15 9h1v1h-1z"/></g><path d="M16 9h1v1h-1z" class="F"/><g class="D"><path d="M17 9h1v1h-1z"/><path d="M18 9h1v1h-1z"/><path d="M19 9h1v1h-1z"/><path d="M20 9h1v1h-1z"/><path d="M21 9h1v1h-1z"/><path d="M22 9h1v1h-1z"/></g><path d="M23 9h1v1h-1z" class="B"/><path d="M24 9h1v1h-1z"/><g class="D"><path d="M25 9h1v1h-1z"/><path d="M26 9h1v1h-1z"/><path d="M27 9h1v1h-1z"/></g><path d="M28 9h1v1h-1z"/><path d="M3 10h1v1H3z" class="E"/><path d="M4 10h1v1H4z" class="D"/><path d="M5 10h1v1H5z" class="B"/><path d="M6 10h1v1H6z" class="C"/><path d="M7 10h1v1H7z" class="E"/><g class="D"><path d="M8 10h1v1H8z"/><path d="M9 10h1v1H9z"/><path d="M10 10h1v1h-1z"/><path d="M11 10h1v1h-1z"/></g><path d="M12 10h1v1h-1z" class="F"/><g class="D"><path d="M13 10h1v1h-1z"/><path d="M14 10h1v1h-1z"/></g><path d="M15 10h1v1h-1z" class="F"/><g class="D"><path d="M16 10h1v1h-1z"/><path d="M17 10h1v1h-1z"/></g><path d="M18 10h1v1h-1z" class="F"/><g class="D"><path d="M19 10h1v1h-1z"/><path d="M20 10h1v1h-1z"/><path d="M21 10h1v1h-1z"/><path d="M22 10h1v1h-1z"/><path d="M23 10h1v1h-1z"/></g><path d="M24 10h1v1h-1z" class="B"/><path d="M25 10h1v1h-1z"/><path d="M26 10h1v1h-1z" class="C"/><path d="M27 10h1v1h-1z" class="B"/><path d="M28 10h1v1h-1z" class="G"/><path d="M29 10h1v1h-1z"/><path d="M3 11h1v1H3z" class="E"/><path d="M4 11h1v1H4z" class="D"/><path d="M5 11h1v1H5z" class="C"/><path d="M6 11h1v1H6z" class="E"/><g class="D"><path d="M7 11h1v1H7z"/><path d="M8 11h1v1H8z"/><path d="M9 11h1v1H9z"/><path d="M10 11h1v1h-1z"/></g><path d="M11 11h1v1h-1z" class="F"/><g class="D"><path d="M12 11h1v1h-1z"/><path d="M13 11h1v1h-1z"/></g><path d="M14 11h1v1h-1z" class="F"/><g class="D"><path d="M15 11h1v1h-1z"/><path d="M16 11h1v1h-1z"/></g><path d="M17 11h1v1h-1z" class="F"/><g class="D"><path d="M18 11h1v1h-1z"/><path d="M19 11h1v1h-1z"/></g><path d="M20 11h1v1h-1z" class="F"/><g class="D"><path d="M21 11h1v1h-1z"/><path d="M22 11h1v1h-1z"/><path d="M23 11h1v1h-1z"/><path d="M24 11h1v1h-1z"/></g><path d="M25 11h1v1h-1z" class="B"/><path d="M26 11h1v1h-1z"/><path d="M27 11h1v1h-1z" class="C"/><path d="M28 11h1v1h-1z" class="G"/><path d="M29 11h1v1h-1z"/><path d="M3 12h1v1H3z" class="E"/><path d="M4 12h1v1H4z" class="D"/><path d="M5 12h1v1H5z" class="E"/><g class="D"><path d="M6 12h1v1H6z"/><path d="M7 12h1v1H7z"/><path d="M8 12h1v1H8z"/><path d="M9 12h1v1H9z"/></g><path d="M10 12h1v1h-1z" class="F"/><g class="D"><path d="M11 12h1v1h-1z"/><path d="M12 12h1v1h-1z"/></g><path d="M13 12h1v1h-1z" class="F"/><g class="D"><path d="M14 12h1v1h-1z"/><path d="M15 12h1v1h-1z"/></g><path d="M16 12h1v1h-1z" class="F"/><g class="D"><path d="M17 12h1v1h-1z"/><path d="M18 12h1v1h-1z"/></g><path d="M19 12h1v1h-1z" class="F"/><g class="D"><path d="M20 12h1v1h-1z"/><path d="M21 12h1v1h-1z"/></g><path d="M22 12h1v1h-1z" class="F"/><g class="D"><path d="M23 12h1v1h-1z"/><path d="M24 12h1v1h-1z"/><path d="M25 12h1v1h-1z"/></g><path d="M26 12h1v1h-1z" class="B"/><path d="M27 12h1v1h-1z"/><path d="M28 12h1v1h-1z" class="G"/><path d="M29 12h1v1h-1z"/><g class="E"><path d="M1 13h1v1H1z"/><path d="M2 13h1v1H2z"/></g><g class="B"><path d="M3 13h1v1H3z"/><path d="M4 13h1v1H4z"/><path d="M5 13h1v1H5z"/><path d="M6 13h1v1H6z"/><path d="M7 13h1v1H7z"/><path d="M8 13h1v1H8z"/><path d="M9 13h1v1H9z"/><path d="M10 13h1v1h-1z"/><path d="M11 13h1v1h-1z"/><path d="M12 13h1v1h-1z"/><path d="M13 13h1v1h-1z"/><path d="M14 13h1v1h-1z"/><path d="M15 13h1v1h-1z"/><path d="M16 13h1v1h-1z"/><path d="M17 13h1v1h-1z"/><path d="M18 13h1v1h-1z"/><path d="M19 13h1v1h-1z"/><path d="M20 13h1v1h-1z"/><path d="M21 13h1v1h-1z"/><path d="M22 13h1v1h-1z"/><path d="M23 13h1v1h-1z"/><path d="M24 13h1v1h-1z"/><path d="M25 13h1v1h-1z"/></g><path d="M26 13h1v1h-1z" class="D"/><path d="M27 13h1v1h-1z" class="B"/><path d="M28 13h1v1h-1z"/><path d="M29 13h1v1h-1z"/><path d="M0 14h1v1H0z" class="E"/><g class="D"><path d="M1 14h1v1H1z"/><path d="M2 14h1v1H2z"/><path d="M3 14h1v1H3z"/><path d="M4 14h1v1H4z"/><path d="M5 14h1v1H5z"/><path d="M6 14h1v1H6z"/><path d="M7 14h1v1H7z"/><path d="M8 14h1v1H8z"/><path d="M9 14h1v1H9z"/><path d="M10 14h1v1h-1z"/><path d="M11 14h1v1h-1z"/><path d="M12 14h1v1h-1z"/><path d="M13 14h1v1h-1z"/><path d="M14 14h1v1h-1z"/><path d="M15 14h1v1h-1z"/><path d="M16 14h1v1h-1z"/><path d="M17 14h1v1h-1z"/><path d="M18 14h1v1h-1z"/><path d="M19 14h1v1h-1z"/><path d="M20 14h1v1h-1z"/><path d="M21 14h1v1h-1z"/><path d="M22 14h1v1h-1z"/><path d="M23 14h1v1h-1z"/><path d="M24 14h1v1h-1z"/></g><path d="M25 14h1v1h-1z"/><path d="M26 14h1v1h-1z" class="E"/><path d="M27 14h1v1h-1z" class="D"/><path d="M28 14h1v1h-1z" class="B"/><path d="M29 14h1v1h-1z"/><path d="M0 15h1v1H0z" class="E"/><path d="M1 15h1v1H1z" class="C"/><path d="M2 15h1v1H2z" class="B"/><path d="M3 15h1v1H3z" class="C"/><path d="M4 15h1v1H4z" class="B"/><path d="M5 15h1v1H5z" class="C"/><path d="M6 15h1v1H6z" class="B"/><path d="M7 15h1v1H7z" class="C"/><path d="M8 15h1v1H8z" class="B"/><path d="M9 15h1v1H9z" class="C"/><path d="M10 15h1v1h-1z" class="B"/><path d="M11 15h1v1h-1z" class="C"/><path d="M12 15h1v1h-1z" class="B"/><path d="M13 15h1v1h-1z" class="C"/><path d="M14 15h1v1h-1z" class="B"/><path d="M15 15h1v1h-1z" class="C"/><path d="M16 15h1v1h-1z" class="B"/><path d="M17 15h1v1h-1z" class="C"/><path d="M18 15h1v1h-1z" class="B"/><path d="M19 15h1v1h-1z" class="C"/><path d="M20 15h1v1h-1z" class="B"/><path d="M21 15h1v1h-1z" class="C"/><path d="M22 15h1v1h-1z" class="B"/><path d="M23 15h1v1h-1z" class="C"/><path d="M24 15h1v1h-1z" class="B"/><path d="M25 15h1v1h-1z" class="E"/><path d="M26 15h1v1h-1z"/><g class="D"><path d="M27 15h1v1h-1z"/><path d="M28 15h1v1h-1z"/></g><path d="M29 15h1v1h-1z" class="B"/><path d="M30 15h1v1h-1z"/><path d="M0 16h1v1H0z" class="E"/><path d="M1 16h1v1H1z" class="B"/><path d="M2 16h1v1H2z" class="C"/><path d="M3 16h1v1H3z" class="B"/><path d="M4 16h1v1H4z" class="C"/><path d="M5 16h1v1H5z" class="B"/><path d="M6 16h1v1H6z" class="C"/><path d="M7 16h1v1H7z" class="B"/><path d="M8 16h1v1H8z" class="C"/><path d="M9 16h1v1H9z" class="B"/><path d="M10 16h1v1h-1z" class="C"/><path d="M11 16h1v1h-1z" class="B"/><path d="M12 16h1v1h-1z" class="C"/><path d="M13 16h1v1h-1z" class="B"/><path d="M14 16h1v1h-1z" class="C"/><path d="M15 16h1v1h-1z" class="B"/><path d="M16 16h1v1h-1z" class="C"/><path d="M17 16h1v1h-1z" class="B"/><path d="M18 16h1v1h-1z" class="C"/><path d="M19 16h1v1h-1z" class="B"/><path d="M20 16h1v1h-1z" class="C"/><path d="M21 16h1v1h-1z" class="B"/><path d="M22 16h1v1h-1z" class="C"/><path d="M23 16h1v1h-1z" class="B"/><path d="M24 16h1v1h-1z" class="C"/><path d="M25 16h1v1h-1z" class="E"/><path d="M26 16h1v1h-1z"/><g class="D"><path d="M27 16h1v1h-1z"/><path d="M28 16h1v1h-1z"/><path d="M29 16h1v1h-1z"/></g><path d="M30 16h1v1h-1z" class="B"/><path d="M31 16h1v1h-1z"/><path d="M0 17h1v1H0z" class="E"/><path d="M1 17h1v1H1z" class="C"/><path d="M2 17h1v1H2z" class="B"/><path d="M3 17h1v1H3z" class="C"/><path d="M4 17h1v1H4z" class="B"/><path d="M5 17h1v1H5z" class="C"/><path d="M6 17h1v1H6z" class="B"/><path d="M7 17h1v1H7z" class="C"/><path d="M8 17h1v1H8z" class="B"/><path d="M9 17h1v1H9z" class="C"/><path d="M10 17h1v1h-1z" class="B"/><path d="M11 17h1v1h-1z" class="C"/><path d="M12 17h1v1h-1z" class="B"/><path d="M13 17h1v1h-1z" class="C"/><path d="M14 17h1v1h-1z" class="B"/><path d="M15 17h1v1h-1z" class="C"/><path d="M16 17h1v1h-1z" class="B"/><path d="M17 17h1v1h-1z" class="C"/><path d="M18 17h1v1h-1z" class="B"/><path d="M19 17h1v1h-1z" class="C"/><path d="M20 17h1v1h-1z" class="B"/><path d="M21 17h1v1h-1z" class="C"/><path d="M22 17h1v1h-1z" class="B"/><path d="M23 17h1v1h-1z" class="C"/><path d="M24 17h1v1h-1z" class="B"/><path d="M25 17h1v1h-1z" class="C"/><path d="M26 17h1v1h-1z"/><g class="D"><path d="M27 17h1v1h-1z"/><path d="M28 17h1v1h-1z"/></g><path d="M29 17h1v1h-1z" class="B"/><path d="M30 17h1v1h-1z"/><path d="M0 18h1v1H0z" class="E"/><path d="M1 18h1v1H1z" class="B"/><path d="M2 18h1v1H2z" class="C"/><path d="M3 18h1v1H3z" class="B"/><path d="M4 18h1v1H4z" class="C"/><path d="M5 18h1v1H5z" class="B"/><path d="M6 18h1v1H6z" class="C"/><path d="M7 18h1v1H7z" class="B"/><path d="M8 18h1v1H8z" class="C"/><path d="M9 18h1v1H9z" class="B"/><path d="M10 18h1v1h-1z" class="C"/><path d="M11 18h1v1h-1z" class="B"/><path d="M12 18h1v1h-1z" class="C"/><path d="M13 18h1v1h-1z" class="B"/><path d="M14 18h1v1h-1z" class="C"/><path d="M15 18h1v1h-1z" class="B"/><path d="M16 18h1v1h-1z" class="C"/><path d="M17 18h1v1h-1z" class="B"/><path d="M18 18h1v1h-1z" class="C"/><path d="M19 18h1v1h-1z" class="B"/><path d="M20 18h1v1h-1z" class="C"/><path d="M21 18h1v1h-1z" class="B"/><path d="M22 18h1v1h-1z" class="C"/><path d="M23 18h1v1h-1z" class="B"/><path d="M24 18h1v1h-1z" class="C"/><path d="M25 18h1v1h-1z" class="B"/><path d="M26 18h1v1h-1z"/><path d="M27 18h1v1h-1z" class="E"/><path d="M28 18h1v1h-1z" class="B"/><path d="M29 18h1v1h-1z"/><path d="M1 19h1v1H1z" class="E"/><path d="M2 19h1v1H2z" class="D"/><path d="M3 19h1v1H3z" class="C"/><path d="M4 19h1v1H4z" class="B"/><path d="M5 19h1v1H5z" class="C"/><path d="M6 19h1v1H6z" class="B"/><path d="M7 19h1v1H7z" class="C"/><path d="M8 19h1v1H8z" class="B"/><path d="M9 19h1v1H9z" class="C"/><path d="M10 19h1v1h-1z" class="B"/><path d="M11 19h1v1h-1z" class="C"/><path d="M12 19h1v1h-1z" class="B"/><path d="M13 19h1v1h-1z" class="C"/><path d="M14 19h1v1h-1z" class="B"/><path d="M15 19h1v1h-1z" class="C"/><path d="M16 19h1v1h-1z" class="B"/><path d="M17 19h1v1h-1z" class="C"/><path d="M18 19h1v1h-1z" class="B"/><path d="M19 19h1v1h-1z" class="C"/><path d="M20 19h1v1h-1z" class="B"/><path d="M21 19h1v1h-1z" class="C"/><path d="M22 19h1v1h-1z" class="B"/><path d="M23 19h1v1h-1z" class="C"/><path d="M24 19h1v1h-1z" class="B"/><path d="M25 19h1v1h-1z" class="C"/><path d="M26 19h1v1h-1z" class="E"/><path d="M27 19h1v1h-1z"/><path d="M28 19h1v1h-1z"/><path d="M29 19h1v1h-1z"/><path d="M1 20h1v1H1z" class="E"/><path d="M2 20h1v1H2z" class="D"/><path d="M3 20h1v1H3z" class="B"/><path d="M4 20h1v1H4z" class="C"/><path d="M5 20h1v1H5z" class="B"/><path d="M6 20h1v1H6z" class="C"/><path d="M7 20h1v1H7z" class="B"/><path d="M8 20h1v1H8z" class="C"/><path d="M9 20h1v1H9z" class="B"/><path d="M10 20h1v1h-1z" class="C"/><path d="M11 20h1v1h-1z" class="B"/><path d="M12 20h1v1h-1z" class="C"/><path d="M13 20h1v1h-1z" class="B"/><path d="M14 20h1v1h-1z" class="C"/><path d="M15 20h1v1h-1z" class="B"/><path d="M16 20h1v1h-1z" class="C"/><path d="M17 20h1v1h-1z" class="B"/><path d="M18 20h1v1h-1z" class="C"/><path d="M19 20h1v1h-1z" class="B"/><path d="M20 20h1v1h-1z" class="C"/><path d="M21 20h1v1h-1z" class="B"/><path d="M22 20h1v1h-1z" class="C"/><path d="M23 20h1v1h-1z" class="B"/><path d="M24 20h1v1h-1z" class="C"/><path d="M25 20h1v1h-1z" class="B"/><path d="M26 20h1v1h-1z" class="E"/><path d="M27 20h1v1h-1z"/><path d="M28 20h1v1h-1z" class="G"/><path d="M29 20h1v1h-1z"/><path d="M1 21h1v1H1z" class="E"/><path d="M2 21h1v1H2z" class="D"/><path d="M3 21h1v1H3z" class="C"/><path d="M4 21h1v1H4z" class="B"/><path d="M5 21h1v1H5z" class="C"/><path d="M6 21h1v1H6z" class="B"/><path d="M7 21h1v1H7z" class="C"/><path d="M8 21h1v1H8z" class="B"/><path d="M9 21h1v1H9z" class="C"/><path d="M10 21h1v1h-1z" class="B"/><path d="M11 21h1v1h-1z" class="C"/><path d="M12 21h1v1h-1z" class="B"/><path d="M13 21h1v1h-1z" class="C"/><path d="M14 21h1v1h-1z" class="B"/><path d="M15 21h1v1h-1z" class="C"/><path d="M16 21h1v1h-1z" class="B"/><path d="M17 21h1v1h-1z" class="C"/><path d="M18 21h1v1h-1z" class="B"/><path d="M19 21h1v1h-1z" class="C"/><path d="M20 21h1v1h-1z" class="B"/><path d="M21 21h1v1h-1z" class="C"/><path d="M22 21h1v1h-1z" class="B"/><path d="M23 21h1v1h-1z" class="C"/><path d="M24 21h1v1h-1z" class="B"/><path d="M25 21h1v1h-1z" class="C"/><path d="M26 21h1v1h-1z" class="B"/><path d="M27 21h1v1h-1z"/><path d="M28 21h1v1h-1z" class="G"/><path d="M29 21h1v1h-1z"/><path d="M1 22h1v1H1z" class="E"/><path d="M2 22h1v1H2z" class="D"/><path d="M3 22h1v1H3z" class="B"/><path d="M4 22h1v1H4z" class="C"/><path d="M5 22h1v1H5z" class="B"/><path d="M6 22h1v1H6z" class="C"/><path d="M7 22h1v1H7z" class="B"/><path d="M8 22h1v1H8z" class="C"/><path d="M9 22h1v1H9z" class="B"/><path d="M10 22h1v1h-1z" class="C"/><path d="M11 22h1v1h-1z" class="B"/><path d="M12 22h1v1h-1z" class="C"/><path d="M13 22h1v1h-1z" class="B"/><path d="M14 22h1v1h-1z" class="C"/><path d="M15 22h1v1h-1z" class="B"/><path d="M16 22h1v1h-1z" class="C"/><path d="M17 22h1v1h-1z" class="B"/><path d="M18 22h1v1h-1z" class="C"/><path d="M19 22h1v1h-1z" class="B"/><path d="M20 22h1v1h-1z" class="C"/><path d="M21 22h1v1h-1z" class="B"/><path d="M22 22h1v1h-1z" class="C"/><path d="M23 22h1v1h-1z" class="B"/><path d="M24 22h1v1h-1z" class="C"/><path d="M25 22h1v1h-1z" class="B"/><path d="M26 22h1v1h-1z" class="C"/><path d="M27 22h1v1h-1z"/><path d="M28 22h1v1h-1z" class="G"/><path d="M29 22h1v1h-1z"/><path d="M2 23h1v1H2z" class="E"/><path d="M3 23h1v1H3z" class="D"/><path d="M4 23h1v1H4z" class="B"/><path d="M5 23h1v1H5z" class="C"/><path d="M6 23h1v1H6z" class="B"/><path d="M7 23h1v1H7z" class="C"/><path d="M8 23h1v1H8z" class="B"/><path d="M9 23h1v1H9z" class="C"/><path d="M10 23h1v1h-1z" class="B"/><path d="M11 23h1v1h-1z" class="C"/><path d="M12 23h1v1h-1z" class="B"/><path d="M13 23h1v1h-1z" class="C"/><path d="M14 23h1v1h-1z" class="B"/><path d="M15 23h1v1h-1z" class="C"/><path d="M16 23h1v1h-1z" class="B"/><path d="M17 23h1v1h-1z" class="C"/><path d="M18 23h1v1h-1z" class="B"/><path d="M19 23h1v1h-1z" class="C"/><path d="M20 23h1v1h-1z" class="B"/><path d="M21 23h1v1h-1z" class="C"/><path d="M22 23h1v1h-1z" class="B"/><path d="M23 23h1v1h-1z" class="C"/><path d="M24 23h1v1h-1z" class="B"/><path d="M25 23h1v1h-1z" class="C"/><path d="M26 23h1v1h-1z" class="B"/><path d="M27 23h1v1h-1z" class="E"/><path d="M28 23h1v1h-1z"/><path d="M29 23h1v1h-1z"/><path d="M2 24h1v1H2z" class="E"/><path d="M3 24h1v1H3z" class="D"/><path d="M4 24h1v1H4z" class="C"/><path d="M5 24h1v1H5z" class="B"/><path d="M6 24h1v1H6z" class="C"/><path d="M7 24h1v1H7z" class="B"/><path d="M8 24h1v1H8z" class="C"/><path d="M9 24h1v1H9z" class="B"/><path d="M10 24h1v1h-1z" class="C"/><path d="M11 24h1v1h-1z" class="B"/><path d="M12 24h1v1h-1z" class="C"/><path d="M13 24h1v1h-1z" class="B"/><path d="M14 24h1v1h-1z" class="C"/><path d="M15 24h1v1h-1z" class="B"/><path d="M16 24h1v1h-1z" class="C"/><path d="M17 24h1v1h-1z" class="B"/><path d="M18 24h1v1h-1z" class="C"/><path d="M19 24h1v1h-1z" class="B"/><path d="M20 24h1v1h-1z" class="C"/><path d="M21 24h1v1h-1z" class="B"/><path d="M22 24h1v1h-1z" class="C"/><path d="M23 24h1v1h-1z" class="B"/><path d="M24 24h1v1h-1z" class="C"/><path d="M25 24h1v1h-1z" class="B"/><path d="M26 24h1v1h-1z" class="C"/><path d="M27 24h1v1h-1z" class="E"/><path d="M28 24h1v1h-1z"/><path d="M29 24h1v1h-1z"/><path d="M2 25h1v1H2z" class="E"/><path d="M3 25h1v1H3z" class="D"/><path d="M4 25h1v1H4z" class="B"/><path d="M5 25h1v1H5z" class="C"/><path d="M6 25h1v1H6z" class="B"/><path d="M7 25h1v1H7z" class="C"/><path d="M8 25h1v1H8z" class="B"/><path d="M9 25h1v1H9z" class="C"/><path d="M10 25h1v1h-1z" class="B"/><path d="M11 25h1v1h-1z" class="C"/><path d="M12 25h1v1h-1z" class="B"/><path d="M13 25h1v1h-1z" class="C"/><path d="M14 25h1v1h-1z" class="B"/><path d="M15 25h1v1h-1z" class="C"/><path d="M16 25h1v1h-1z" class="B"/><path d="M17 25h1v1h-1z" class="C"/><path d="M18 25h1v1h-1z" class="B"/><path d="M19 25h1v1h-1z" class="C"/><path d="M20 25h1v1h-1z" class="B"/><path d="M21 25h1v1h-1z" class="C"/><path d="M22 25h1v1h-1z" class="B"/><path d="M23 25h1v1h-1z" class="C"/><path d="M24 25h1v1h-1z" class="B"/><path d="M25 25h1v1h-1z" class="C"/><g class="B"><path d="M26 25h1v1h-1z"/><path d="M27 25h1v1h-1z"/></g><path d="M28 25h1v1h-1z"/><path d="M29 25h1v1h-1z"/><path d="M2 26h1v1H2z" class="E"/><path d="M3 26h1v1H3z" class="D"/><path d="M4 26h1v1H4z" class="C"/><path d="M5 26h1v1H5z" class="B"/><path d="M6 26h1v1H6z" class="C"/><path d="M7 26h1v1H7z" class="B"/><path d="M8 26h1v1H8z" class="C"/><path d="M9 26h1v1H9z" class="B"/><path d="M10 26h1v1h-1z" class="C"/><path d="M11 26h1v1h-1z" class="B"/><path d="M12 26h1v1h-1z" class="C"/><path d="M13 26h1v1h-1z" class="B"/><path d="M14 26h1v1h-1z" class="C"/><path d="M15 26h1v1h-1z" class="B"/><path d="M16 26h1v1h-1z" class="C"/><path d="M17 26h1v1h-1z" class="B"/><path d="M18 26h1v1h-1z" class="C"/><path d="M19 26h1v1h-1z" class="B"/><path d="M20 26h1v1h-1z" class="C"/><path d="M21 26h1v1h-1z" class="B"/><path d="M22 26h1v1h-1z" class="C"/><path d="M23 26h1v1h-1z" class="B"/><path d="M24 26h1v1h-1z" class="C"/><path d="M25 26h1v1h-1z" class="B"/><path d="M26 26h1v1h-1z" class="C"/><path d="M27 26h1v1h-1z" class="B"/><path d="M28 26h1v1h-1z"/><path d="M29 26h1v1h-1z"/><path d="M3 27h1v1H3z" class="E"/><path d="M4 27h1v1H4z" class="D"/><path d="M5 27h1v1H5z" class="C"/><path d="M6 27h1v1H6z" class="B"/><path d="M7 27h1v1H7z" class="C"/><path d="M8 27h1v1H8z" class="B"/><path d="M9 27h1v1H9z" class="C"/><path d="M10 27h1v1h-1z" class="B"/><path d="M11 27h1v1h-1z" class="C"/><path d="M12 27h1v1h-1z" class="B"/><path d="M13 27h1v1h-1z" class="C"/><path d="M14 27h1v1h-1z" class="B"/><path d="M15 27h1v1h-1z" class="C"/><path d="M16 27h1v1h-1z" class="B"/><path d="M17 27h1v1h-1z" class="C"/><path d="M18 27h1v1h-1z" class="B"/><path d="M19 27h1v1h-1z" class="C"/><path d="M20 27h1v1h-1z" class="B"/><path d="M21 27h1v1h-1z" class="C"/><path d="M22 27h1v1h-1z" class="B"/><path d="M23 27h1v1h-1z" class="C"/><path d="M24 27h1v1h-1z" class="B"/><path d="M25 27h1v1h-1z" class="C"/><path d="M26 27h1v1h-1z" class="B"/><path d="M27 27h1v1h-1z" class="C"/><path d="M28 27h1v1h-1z" class="G"/><path d="M29 27h1v1h-1z"/><path d="M3 28h1v1H3z" class="E"/><path d="M4 28h1v1H4z" class="D"/><path d="M5 28h1v1H5z" class="B"/><path d="M6 28h1v1H6z" class="C"/><path d="M7 28h1v1H7z" class="B"/><path d="M8 28h1v1H8z" class="C"/><path d="M9 28h1v1H9z" class="B"/><path d="M10 28h1v1h-1z" class="C"/><path d="M11 28h1v1h-1z" class="B"/><path d="M12 28h1v1h-1z" class="C"/><path d="M13 28h1v1h-1z" class="B"/><path d="M14 28h1v1h-1z" class="C"/><path d="M15 28h1v1h-1z" class="B"/><path d="M16 28h1v1h-1z" class="C"/><path d="M17 28h1v1h-1z" class="B"/><path d="M18 28h1v1h-1z" class="C"/><path d="M19 28h1v1h-1z" class="B"/><path d="M20 28h1v1h-1z" class="C"/><path d="M21 28h1v1h-1z" class="B"/><path d="M22 28h1v1h-1z" class="C"/><path d="M23 28h1v1h-1z" class="B"/><path d="M24 28h1v1h-1z" class="C"/><path d="M25 28h1v1h-1z" class="B"/><path d="M26 28h1v1h-1z" class="C"/><path d="M27 28h1v1h-1z" class="B"/><path d="M28 28h1v1h-1z" class="G"/><path d="M29 28h1v1h-1z"/><path d="M3 29h1v1H3z" class="E"/><g class="G"><path d="M4 29h1v1H4z"/><path d="M5 29h1v1H5z"/><path d="M6 29h1v1H6z"/><path d="M7 29h1v1H7z"/><path d="M8 29h1v1H8z"/><path d="M9 29h1v1H9z"/><path d="M10 29h1v1h-1z"/><path d="M11 29h1v1h-1z"/><path d="M12 29h1v1h-1z"/><path d="M13 29h1v1h-1z"/><path d="M14 29h1v1h-1z"/><path d="M15 29h1v1h-1z"/><path d="M16 29h1v1h-1z"/><path d="M17 29h1v1h-1z"/><path d="M18 29h1v1h-1z"/><path d="M19 29h1v1h-1z"/><path d="M20 29h1v1h-1z"/><path d="M21 29h1v1h-1z"/><path d="M22 29h1v1h-1z"/><path d="M23 29h1v1h-1z"/><path d="M24 29h1v1h-1z"/><path d="M25 29h1v1h-1z"/><path d="M26 29h1v1h-1z"/><path d="M27 29h1v1h-1z"/><path d="M28 29h1v1h-1z"/></g><path d="M29 29h1v1h-1zM4 30h1v1H4z"/><path d="M5 30h1v1H5z"/><path d="M6 30h1v1H6z"/><path d="M7 30h1v1H7z"/><path d="M8 30h1v1H8z"/><path d="M9 30h1v1H9z"/><path d="M10 30h1v1h-1z"/><path d="M11 30h1v1h-1z"/><path d="M12 30h1v1h-1z"/><path d="M13 30h1v1h-1z"/><path d="M14 30h1v1h-1z"/><path d="M15 30h1v1h-1z"/><path d="M16 30h1v1h-1z"/><path d="M17 30h1v1h-1z"/><path d="M18 30h1v1h-1z"/><path d="M19 30h1v1h-1z"/><path d="M20 30h1v1h-1z"/><path d="M21 30h1v1h-1z"/><path d="M22 30h1v1h-1z"/><path d="M23 30h1v1h-1z"/><path d="M24 30h1v1h-1z"/><path d="M25 30h1v1h-1z"/><path d="M26 30h1v1h-1z"/><path d="M27 30h1v1h-1z"/><path d="M28 30h1v1h-1z"/></svg>