<svg version="1.1" id="Layer_1" xmlns="http://www.w3.org/2000/svg" xmlns:xlink="http://www.w3.org/1999/xlink" x="0px" y="0px"
	 width="100%" viewBox="0 0 896 896" enable-background="new 0 0 896 896" xml:space="preserve">
<path fill="#FFD967" opacity="1.000000" stroke="none" 
	d="
M1.000000,758.000000 
	C1.000000,596.975098 1.000000,435.950195 1.468657,274.462646 
	C300.291534,274.000000 598.645752,274.000000 897.000000,274.000000 
	C897.000000,435.024902 897.000000,596.049805 896.532959,757.581421 
	C895.233215,758.100525 894.400391,758.123779 893.567627,758.123779 
	C597.542847,758.125610 301.518036,758.126038 5.493224,758.120850 
	C3.995482,758.120789 2.497742,758.041992 1.000000,758.000000 
z"/>
<path fill="transparent" opacity="1.000000" stroke="none" 
	d="
M0.999998,150.000000 
	C1.000000,100.350334 1.000000,50.700676 1.000000,1.025506 
	C299.547394,1.025506 598.094788,1.025506 897.000000,1.025506 
	C897.000000,71.689590 897.000000,142.379776 896.720947,213.869781 
	C896.052734,214.358139 895.464478,214.126404 895.303284,213.723709 
	C890.203064,200.982544 877.569946,192.754868 864.299927,192.787048 
	C721.884521,193.132401 579.467896,193.001450 437.051636,193.008286 
	C435.389801,193.008362 433.727997,193.104630 431.597229,193.086212 
	C426.421143,192.957870 421.714050,192.899338 416.880096,192.538025 
	C400.729614,176.218414 384.924896,159.974045 368.601562,144.268661 
	C358.540710,134.588654 346.037292,129.121399 332.016632,129.096176 
	C231.873932,128.916077 131.730576,129.083786 31.587936,128.883530 
	C20.318930,128.861008 6.752280,136.956573 2.934124,148.618179 
	C2.735500,149.224838 1.664728,149.545944 0.999998,150.000000 
z"/>
<path fill="transparent" opacity="1.000000" stroke="none" 
	d="
M897.000000,765.000000 
	C897.000000,808.983582 897.000000,852.967224 897.000000,896.946289 
	C598.333313,896.941772 299.666656,896.941772 1.000000,896.941772 
	C1.000000,853.233032 1.000000,809.582581 1.287111,765.166748 
	C4.810927,768.332397 9.009633,769.085632 13.956431,769.084045 
	C300.261688,768.989868 586.566956,769.010864 872.872253,768.945068 
	C881.063538,768.943176 889.731995,771.005493 897.000000,765.000000 
z"/>
<path fill="#FFB900" opacity="1.000000" stroke="none" 
	d="
M0.999998,150.468658 
	C1.664728,149.545944 2.735500,149.224838 2.934124,148.618179 
	C6.752280,136.956573 20.318930,128.861008 31.587936,128.883530 
	C131.730576,129.083786 231.873932,128.916077 332.016632,129.096176 
	C346.037292,129.121399 358.540710,134.588654 368.601562,144.268661 
	C384.924896,159.974045 400.729614,176.218414 416.582214,192.701416 
	C401.380127,208.280533 386.446808,223.492386 371.285980,238.473984 
	C359.883484,249.741714 345.978668,256.736969 329.988525,256.783844 
	C220.326416,257.105255 110.662994,256.980835 1.000000,257.000000 
	C1.000000,221.645767 1.000000,186.291550 0.999998,150.468658 
z"/>
<path fill="#FFD861" opacity="1.000000" stroke="none" 
	d="
M432.066162,193.156006 
	C433.727997,193.104630 435.389801,193.008362 437.051636,193.008286 
	C579.467896,193.001450 721.884521,193.132401 864.299927,192.787048 
	C877.569946,192.754868 890.203064,200.982544 895.303284,213.723709 
	C895.464478,214.126404 896.052734,214.358139 896.720947,214.334778 
	C897.000000,233.687561 897.000000,253.375122 897.000000,273.531342 
	C598.645752,274.000000 300.291534,274.000000 1.468657,274.000000 
	C1.000000,272.285645 1.000000,270.571289 1.468496,268.414459 
	C111.763039,267.962280 221.589554,268.084198 331.414215,267.691101 
	C340.133820,267.659912 349.581696,265.561707 357.358002,261.723328 
	C366.240082,257.339142 374.292694,250.623978 381.534454,243.697189 
	C398.745880,227.234390 415.266449,210.049255 432.066162,193.156006 
z"/>
<path fill="#DA7B16" opacity="1.000000" stroke="none" 
	d="
M897.000000,764.562500 
	C889.731995,771.005493 881.063538,768.943176 872.872253,768.945068 
	C586.566956,769.010864 300.261688,768.989868 13.956431,769.084045 
	C9.009633,769.085632 4.810927,768.332397 1.287111,764.700684 
	C1.000000,762.958313 1.000000,760.916687 1.000000,758.437500 
	C2.497742,758.041992 3.995482,758.120789 5.493224,758.120850 
	C301.518036,758.126038 597.542847,758.125610 893.567627,758.123779 
	C894.400391,758.123779 895.233215,758.100525 896.532959,758.044067 
	C897.000000,760.041687 897.000000,762.083313 897.000000,764.562500 
z"/>
<path fill="#FFE8A0" opacity="1.000000" stroke="none" 
	d="
M431.597229,193.086212 
	C415.266449,210.049255 398.745880,227.234390 381.534454,243.697189 
	C374.292694,250.623978 366.240082,257.339142 357.358002,261.723328 
	C349.581696,265.561707 340.133820,267.659912 331.414215,267.691101 
	C221.589554,268.084198 111.763039,267.962280 1.468496,267.985992 
	C1.000000,264.638702 1.000000,261.277435 1.000000,257.458069 
	C110.662994,256.980835 220.326416,257.105255 329.988525,256.783844 
	C345.978668,256.736969 359.883484,249.741714 371.285980,238.473984 
	C386.446808,223.492386 401.380127,208.280533 416.709045,193.004196 
	C421.714050,192.899338 426.421143,192.957870 431.597229,193.086212 
z"/>
</svg>